# xmcd
#
# Track frame offsets: 
#        150
#        23266
#        49545
#        75372
#        94773
#        116380
#        142496
#        162412
#        185989
#        207253
#        232581
#        252386
#        273205
#        291243
#        312054
#
# Disc length: 4423 seconds
#
# Revision: 4
# Processed by: cddbd v1.5.1PL2 Copyright (c) Steve Scherf et al.
# Submitted via: ExactAudioCopy v0.90b4
#
DISCID=c611450f
DTITLE=Never the Bride - Surprise
DYEAR=2003
DGENRE=Rock
TTITLE0=This Is A Cry For Love
TTITLE1=When It's All To Late
TTITLE2=The Living Tree
TTITLE3=How Do You Sleep
TTITLE4=Higher Then Heaven
TTITLE5=Surprise
TTITLE6=Walk, Don't Run
TTITLE7=She Knows You know
TTITLE8=If I Counted To Ten
TTITLE9=Feels Like I'm Falling
TTITLE10=Kiss Kiss
TTITLE11=I'd Do It For You
TTITLE12=Who Do You Love
TTITLE13=I Feel For You
TTITLE14=Mind That Child
EXTD=YEAR: 2003
EXTT0=
EXTT1=
EXTT2=
EXTT3=
EXTT4=
EXTT5=
EXTT6=
EXTT7=
EXTT8=
EXTT9=
EXTT10=
EXTT11=
EXTT12=
EXTT13=
EXTT14=
PLAYORDER=
